<?xml version="1.0" encoding="UTF-8" standalone="no"?>
<!-- Created with Inkscape (http://www.inkscape.org/) -->

<svg
   xmlns:dc="http://purl.org/dc/elements/1.1/"
   xmlns:cc="http://creativecommons.org/ns#"
   xmlns:rdf="http://www.w3.org/1999/02/22-rdf-syntax-ns#"
   xmlns:svg="http://www.w3.org/2000/svg"
   xmlns="http://www.w3.org/2000/svg"
   xmlns:xlink="http://www.w3.org/1999/xlink"
   xmlns:sodipodi="http://sodipodi.sourceforge.net/DTD/sodipodi-0.dtd"
   xmlns:inkscape="http://www.inkscape.org/namespaces/inkscape"
   width="282.17969"
   height="118.68555"
   viewBox="0 0 74.660041 31.402218"
   version="1.1"
   id="svg8"
   inkscape:version="0.92.2 (5c3e80d, 2017-08-06)"
   sodipodi:docname="classgen_blog_logo.svg"
   inkscape:export-filename="D:\Dropbox\ProgrammingAndTinkering\python\classgen_blog\pelican\theme\static\images\classgen_blog_logo.png"
   inkscape:export-xdpi="96"
   inkscape:export-ydpi="96">
  <defs
     id="defs2">
    <linearGradient
       inkscape:collect="always"
       id="linearGradient855">
      <stop
         style="stop-color:#6c6cc6;stop-opacity:1"
         offset="0"
         id="stop851" />
      <stop
         style="stop-color:#cfcff1;stop-opacity:1"
         offset="1"
         id="stop853" />
    </linearGradient>
    <linearGradient
       inkscape:collect="always"
       xlink:href="#linearGradient855"
       id="linearGradient857-0"
       x1="19.654762"
       y1="22.300594"
       x2="258.15775"
       y2="264.58334"
       gradientUnits="userSpaceOnUse"
       gradientTransform="matrix(3.7795276,0,0,3.7795276,0.05736509,0.05734099)" />
    <linearGradient
       inkscape:collect="always"
       xlink:href="#linearGradient855"
       id="linearGradient860"
       gradientUnits="userSpaceOnUse"
       gradientTransform="matrix(0.14015398,0,0,0.14015398,-70.766108,109.21164)"
       x1="19.654762"
       y1="22.300594"
       x2="258.15775"
       y2="264.58334" />
  </defs>
  <sodipodi:namedview
     id="base"
     pagecolor="#ffffff"
     bordercolor="#666666"
     borderopacity="1.0"
     inkscape:pageopacity="0.0"
     inkscape:pageshadow="2"
     inkscape:zoom="0.9899495"
     inkscape:cx="23.644812"
     inkscape:cy="-17.878444"
     inkscape:document-units="mm"
     inkscape:current-layer="layer2"
     showgrid="false"
     units="px"
     inkscape:snap-page="true"
     inkscape:snap-global="true"
     inkscape:window-width="1920"
     inkscape:window-height="1017"
     inkscape:window-x="-8"
     inkscape:window-y="-8"
     inkscape:window-maximized="1"
     fit-margin-top="0"
     fit-margin-left="0"
     fit-margin-right="0"
     fit-margin-bottom="0" />
  <metadata
     id="metadata5">
    <rdf:RDF>
      <cc:Work
         rdf:about="">
        <dc:format>image/svg+xml</dc:format>
        <dc:type
           rdf:resource="http://purl.org/dc/dcmitype/StillImage" />
        <dc:title></dc:title>
      </cc:Work>
    </rdf:RDF>
  </metadata>
  <g
     inkscape:groupmode="layer"
     id="layer2"
     inkscape:label="ClassGenText"
     transform="translate(-3.2240926,-134.65483)">
    <path
       style="opacity:1;vector-effect:none;fill:#000000;fill-opacity:1;stroke:none;stroke-width:0.11468198;stroke-linecap:butt;stroke-linejoin:miter;stroke-miterlimit:4;stroke-dasharray:none;stroke-dashoffset:0;stroke-opacity:1"
       d="m 23.615234,508.93164 c -6.331444,0 -11.429687,5.09824 -11.429687,11.42969 v 95.82617 c 0,6.33144 5.098243,11.42969 11.429687,11.42969 H 282.9375 c 6.33144,0 11.42773,-5.09825 11.42773,-11.42969 v -95.82617 c 0,-6.33145 -5.09629,-11.42969 -11.42773,-11.42969 z m 159.437496,7.17969 c 0.45121,0 0.78617,0.0194 1.00196,0.0586 0.23541,0.0196 0.4987,0.10869 0.79297,0.26563 0.52967,0.25502 0.79492,1.0101 0.79492,2.26562 0,0.94164 -0.1665,1.61733 -0.5,2.0293 -0.27465,0.31388 -0.7064,0.49201 -1.29492,0.53125 h -0.82422 c -0.72585,0 -1.08789,0.24394 -1.08789,0.73437 v 1.61914 l 1.91211,-0.17578 c 1.3536,0 2.14935,0.37173 2.38476,1.11719 0.11771,0.37273 0.17578,0.86256 0.17578,1.4707 0,0.60815 -0.0697,1.09993 -0.20703,1.47266 -0.1177,0.35311 -0.31324,0.60673 -0.58789,0.76367 -0.41197,0.23541 -1.01022,0.35352 -1.79492,0.35352 L 181.93555,528.5 v 7.88672 c 0,0.74546 -0.0987,1.30305 -0.29493,1.67578 -0.17653,0.35311 -0.46116,0.58933 -0.85351,0.70703 -0.37273,0.11771 -0.86256,0.17578 -1.4707,0.17578 -0.60815,0 -1.09797,-0.0581 -1.47071,-0.17578 -0.35311,-0.13732 -0.60868,-0.34254 -0.76562,-0.61719 -0.15694,-0.29426 -0.25569,-0.55951 -0.29492,-0.79492 -0.0196,-0.23541 -0.0293,-0.57809 -0.0293,-1.0293 v -7.79882 h -1.05859 c -0.51006,-0.0392 -0.87406,-0.15734 -1.08985,-0.35352 -0.37273,-0.37273 -0.55859,-1.08909 -0.55859,-2.14844 0,-1.60863 0.57889,-2.41211 1.73633,-2.41211 h 0.9707 v -1.56054 c 0,-1.51055 0.54018,-2.87356 1.61914,-4.08985 1.07896,-1.2359 2.63752,-1.85351 4.67773,-1.85351 z m -47.80664,0.0586 c 1.23591,0 1.9813,0.26525 2.23633,0.79492 0.15694,0.29427 0.24601,0.55952 0.26563,0.79493 0.0392,0.21579 0.0586,0.54879 0.0586,1 v 6.5039 c 0.98087,-1.19666 2.12899,-1.79492 3.44336,-1.79492 1.96175,0 3.59001,0.7454 4.88477,2.23633 1.31437,1.49093 1.9707,3.31473 1.9707,5.47265 v 5.17969 c 0,0.4512 -0.0194,0.79389 -0.0586,1.0293 -0.0196,0.21579 -0.10869,0.47136 -0.26563,0.76562 -0.25503,0.51006 -1.01011,0.76368 -2.26563,0.76368 -1.19664,0 -1.94206,-0.25362 -2.23632,-0.76368 -0.15694,-0.29426 -0.25374,-0.55951 -0.29297,-0.79492 -0.0196,-0.23541 -0.0293,-0.58777 -0.0293,-1.05859 v -5.15039 c 0,-0.80432 -0.22653,-1.43161 -0.67773,-1.88282 -0.45121,-0.45118 -1.0301,-0.67773 -1.73633,-0.67773 -0.68661,0 -1.29455,0.21685 -1.82422,0.64844 -0.52967,0.41197 -0.83364,0.88244 -0.91211,1.41211 v 5.70898 c 0,0.4512 -0.0194,0.79389 -0.0586,1.0293 -0.0196,0.21579 -0.10869,0.47136 -0.26563,0.76562 -0.25503,0.51006 -1.0101,0.76368 -2.26562,0.76368 -1.2359,0 -1.99098,-0.2633 -2.26563,-0.79297 -0.13732,-0.29427 -0.22639,-0.54984 -0.26562,-0.76563 -0.0196,-0.21579 -0.0293,-0.55848 -0.0293,-1.0293 v -17.59765 c 0,-0.4512 0.01,-0.78421 0.0293,-1 0.0392,-0.23541 0.1283,-0.49098 0.26562,-0.76563 0.27465,-0.52967 1.03941,-0.79492 2.29492,-0.79492 z m -71.064449,1.14844 h 16.361328 c 0.627759,0 1.08855,0.0774 1.382812,0.23437 0.294262,0.13733 0.489803,0.36386 0.587891,0.67774 0.09809,0.31388 0.148437,0.72627 0.148437,1.23633 0,0.51005 -0.05035,0.92049 -0.148437,1.23437 -0.09809,0.29426 -0.26459,0.50144 -0.5,0.61914 -0.353115,0.17656 -0.852623,0.26367 -1.5,0.26367 h -5.621094 v 14.80274 c 0,0.4512 -0.01936,0.78421 -0.05859,1 -0.01962,0.21579 -0.106732,0.47136 -0.263672,0.76562 -0.13732,0.27465 -0.392894,0.47019 -0.765624,0.58789 -0.372733,0.11771 -0.862562,0.17579 -1.470704,0.17579 -0.608142,0 -1.099924,-0.0581 -1.472656,-0.17579 -0.353115,-0.1177 -0.606732,-0.31324 -0.763672,-0.58789 -0.137322,-0.29426 -0.22639,-0.54983 -0.265625,-0.76562 -0.01962,-0.23541 -0.0293,-0.5781 -0.0293,-1.0293 v -14.77344 h -5.65039 c -0.62776,0 -1.088551,-0.0678 -1.382813,-0.20507 -0.294262,-0.15694 -0.489803,-0.39318 -0.58789,-0.70703 -0.09809,-0.31388 -0.148438,-0.72433 -0.148438,-1.23438 0,-0.51005 0.05035,-0.91277 0.148438,-1.20703 0.09809,-0.31388 0.26459,-0.53073 0.5,-0.64844 0.353114,-0.17656 0.852623,-0.26367 1.499999,-0.26367 z M 124,518.11328 c 1.33399,0 2.12779,0.36205 2.38281,1.08789 0.0981,0.31388 0.14649,0.81339 0.14649,1.5 v 2.88477 c 0.86317,-0.0785 1.51177,-0.11719 1.94336,-0.11719 0.4512,0 0.7842,0.0194 1,0.0586 0.23541,0.0196 0.50066,0.10674 0.79492,0.26368 0.51005,0.25502 0.76367,1.0101 0.76367,2.26562 0,1.2359 -0.2633,1.99293 -0.79297,2.26758 -0.29426,0.13732 -0.55951,0.22444 -0.79492,0.26367 -0.21579,0.0196 -0.5488,0.0293 -1,0.0293 L 126.5293,528.5 v 4.06055 c 0,0.52967 0.0794,0.91302 0.23632,1.14843 0.17656,0.23541 0.49021,0.35157 0.94141,0.35157 0.47082,0 0.82321,0.0213 1.05859,0.0605 0.25503,0.0196 0.52028,0.10674 0.79493,0.26368 0.4512,0.25502 0.67773,0.91331 0.67773,1.97265 0,1.2359 -0.27493,1.99098 -0.82422,2.26563 -0.29426,0.13732 -0.55951,0.22443 -0.79492,0.26367 -0.21579,0.0196 -0.53912,0.0293 -0.9707,0.0293 -2.04022,0 -3.59105,-0.4608 -4.65039,-1.38282 -1.05935,-0.92202 -1.58789,-2.48057 -1.58789,-4.67773 V 528.5 c -0.37274,0.0589 -0.77545,0.0879 -1.20704,0.0879 -0.43156,0 -0.79362,-0.1665 -1.08789,-0.5 -0.27464,-0.3335 -0.4121,-0.90271 -0.41211,-1.70703 0,-0.80432 0.0484,-1.38321 0.14649,-1.73633 0.0981,-0.37273 0.23555,-0.63603 0.41211,-0.79297 0.31388,-0.25502 0.70691,-0.38281 1.17773,-0.38281 l 0.97071,0.11719 v -3.03125 c 0,-0.4512 0.01,-0.78421 0.0293,-1 0.0392,-0.21579 0.13603,-0.45201 0.29297,-0.70703 0.25503,-0.49044 1.01206,-0.73438 2.26758,-0.73438 z m -27.378906,4.97266 c 0.372732,0 0.676699,0.0774 0.912109,0.23437 0.23541,0.15694 0.401913,0.32345 0.5,0.5 0.117705,0.15694 0.655931,1.0708 1.617188,2.73828 0.980869,1.64787 1.914089,3.18707 2.796879,4.61914 0.0981,-0.31388 0.62663,-1.52007 1.58789,-3.61914 0.96125,-2.11868 1.47239,-3.24744 1.53125,-3.38476 0.0785,-0.13732 0.19657,-0.30383 0.35351,-0.5 0.25503,-0.3335 0.60739,-0.5 1.0586,-0.5 0.47082,0 1.02067,0.13746 1.64843,0.41211 1.15743,0.51005 1.73633,1.12767 1.73633,1.85351 0,0.35312 -0.0794,0.68612 -0.23633,1 -0.15694,0.31388 -0.23632,0.48039 -0.23633,0.5 l -7.70898,17.24414 c -0.15694,0.37274 -0.2944,0.65734 -0.41211,0.85352 -0.0981,0.19617 -0.26459,0.38204 -0.5,0.55859 -0.23541,0.17656 -0.5297,0.26563 -0.88281,0.26563 -0.35312,0 -0.871983,-0.14715 -1.558595,-0.44141 -1.157431,-0.51005 -1.736328,-1.11799 -1.736328,-1.82422 0,-0.47082 0.940941,-2.71669 2.824219,-6.73828 L 94.060547,527 c -0.39235,-0.64738 -0.587891,-1.12948 -0.587891,-1.44336 0,-0.62776 0.528547,-1.25505 1.587891,-1.88281 0.666994,-0.39235 1.187815,-0.58789 1.560547,-0.58789 z m 61.796876,0 c 2.72683,0 4.72877,0.9603 6.00391,2.88281 0.66697,1.02011 1,2.13918 1,3.35547 0,1.19667 -0.30397,2.08921 -0.91211,2.67773 -0.58853,0.56891 -1.24486,0.85352 -1.97071,0.85352 h -6.97461 c 0,0.54929 0.32333,1.01008 0.97071,1.38281 0.64737,0.37273 1.29403,0.5586 1.9414,0.5586 1.13782,0 2.03231,-0.11811 2.67969,-0.35352 l 0.32227,-0.11719 c 0.47082,-0.21579 0.86385,-0.32422 1.17773,-0.32422 0.62776,0 1.16794,0.44144 1.61914,1.32422 0.25503,0.52967 0.38086,0.98079 0.38086,1.35352 0,1.74595 -2.08905,2.61914 -6.26758,2.61914 -1.45169,0 -2.745,-0.24394 -3.88281,-0.73438 -1.1182,-0.51005 -1.99138,-1.17802 -2.61914,-2.00195 -1.2359,-1.58902 -1.85547,-3.36442 -1.85547,-5.32617 0,-2.4718 0.79575,-4.44275 2.38477,-5.91406 1.60863,-1.49093 3.60862,-2.23633 6.00195,-2.23633 z m 50.11719,0 c 2.72683,0 4.72877,0.9603 6.0039,2.88281 0.667,1.02011 1,2.13918 1,3.35547 0,1.19667 -0.30396,2.08921 -0.91211,2.67773 -0.58852,0.56891 -1.24681,0.85352 -1.97265,0.85352 h -6.97266 c 0,0.54929 0.32333,1.01008 0.9707,1.38281 0.64738,0.37273 1.29403,0.5586 1.94141,0.5586 1.13781,0 2.03036,-0.11811 2.67773,-0.35352 l 0.32422,-0.11719 c 0.47082,-0.21579 0.86386,-0.32422 1.17774,-0.32422 0.62776,0 1.166,0.44144 1.61718,1.32422 0.25503,0.52967 0.38282,0.98079 0.38282,1.35352 0,1.74595 -2.08906,2.61914 -6.26758,2.61914 -1.45169,0 -2.74695,-0.24394 -3.88477,-0.73438 -1.11819,-0.51005 -1.99138,-1.17802 -2.61914,-2.00195 -1.2359,-1.58902 -1.85351,-3.36442 -1.85351,-5.32617 0,-2.4718 0.79379,-4.44275 2.38281,-5.91406 1.60863,-1.49093 3.61057,-2.23633 6.00391,-2.23633 z m 16.83984,0 c 2.72683,0 4.72682,0.9603 6.00195,2.88281 0.667,1.02011 1.00196,2.13918 1.00196,3.35547 0,1.19667 -0.30397,2.08921 -0.91211,2.67773 -0.58853,0.56891 -1.24681,0.85352 -1.97266,0.85352 h -6.97461 c 0,0.54929 0.32528,1.01008 0.97266,1.38281 0.64737,0.37273 1.29403,0.5586 1.9414,0.5586 1.13782,0 2.03036,-0.11811 2.67774,-0.35352 l 0.32422,-0.11719 c 0.47082,-0.21579 0.8619,-0.32422 1.17578,-0.32422 0.62776,0 1.16794,0.44144 1.61914,1.32422 0.25503,0.52967 0.38281,0.98079 0.38281,1.35352 0,1.74595 -2.08905,2.61914 -6.26758,2.61914 -1.45169,0 -2.74695,-0.24394 -3.88476,-0.73438 -1.1182,-0.51005 -1.99138,-1.17802 -2.61914,-2.00195 -1.2359,-1.58902 -1.85352,-3.36442 -1.85352,-5.32617 0,-2.4718 0.7938,-4.44275 2.38281,-5.91406 1.60864,-1.49093 3.61058,-2.23633 6.00391,-2.23633 z m -136.289062,0.17578 c 0.470817,0 0.863854,0.029 1.177734,0.0879 0.31388,0.0392 0.656565,0.11862 1.029297,0.23633 0.372732,0.1177 0.676699,0.32294 0.912109,0.61718 0.255027,0.27465 0.382813,0.72576 0.382813,1.35352 0,0.62776 -0.185862,1.31508 -0.558594,2.06055 -0.372732,0.74546 -0.912911,1.11719 -1.619141,1.11719 -0.353114,0 -0.695799,-0.0774 -1.029297,-0.23438 -0.313879,-0.15694 -0.735953,-0.23633 -1.265625,-0.23633 -0.529672,0 -1.02918,0.18782 -1.5,0.56055 -0.451202,0.37273 -0.677734,0.82384 -0.677734,1.35351 v 6.17969 c 0,0.4512 -0.01936,0.79389 -0.05859,1.0293 -0.01962,0.21579 -0.108685,0.47136 -0.265625,0.76562 -0.294262,0.51006 -1.05902,0.76368 -2.294922,0.76368 -0.941639,0 -1.617329,-0.16651 -2.029297,-0.5 -0.313877,-0.27465 -0.492015,-0.69672 -0.53125,-1.26563 v -0.85156 -10.33008 c 0,-0.4512 0.01163,-0.78421 0.03125,-1 0.03924,-0.23541 0.12635,-0.49098 0.263672,-0.76563 0.274645,-0.52965 1.039404,-0.79296 2.294922,-0.79296 1.177049,0 1.912769,0.22458 2.207032,0.67578 0.21579,0.31388 0.324218,0.6372 0.324218,0.9707 0.09809,-0.13732 0.235552,-0.30382 0.41211,-0.5 0.196174,-0.19617 0.598889,-0.46142 1.207031,-0.79492 0.608142,-0.3335 1.136688,-0.5 1.587891,-0.5 z m 107.246092,0 c 0.47082,0 0.8619,0.029 1.17578,0.0879 0.31388,0.0392 0.65657,0.11862 1.0293,0.23633 0.37273,0.1177 0.67865,0.32294 0.91406,0.61718 0.25503,0.27465 0.38086,0.72576 0.38086,1.35352 0,0.62776 -0.18586,1.31508 -0.55859,2.06055 -0.37273,0.74546 -0.91096,1.11719 -1.61719,1.11719 -0.35311,0 -0.69775,-0.0774 -1.03125,-0.23438 -0.31388,-0.15694 -0.73597,-0.23633 -1.26562,-0.23633 -0.52968,0 -1.02921,0.18782 -1.5,0.56055 -0.45121,0.37273 -0.67774,0.82384 -0.67774,1.35351 v 6.17969 c 0,0.4512 -0.0194,0.79389 -0.0586,1.0293 -0.0196,0.21579 -0.10676,0.47136 -0.26367,0.76562 -0.29427,0.51006 -1.05903,0.76368 -2.29493,0.76368 -0.94164,0 -1.61928,-0.16651 -2.03125,-0.5 -0.31388,-0.27465 -0.49006,-0.69672 -0.52929,-1.26563 v -0.85156 -10.33008 c 0,-0.4512 0.01,-0.78421 0.0293,-1 0.0392,-0.23541 0.12635,-0.49098 0.26368,-0.76563 0.27462,-0.52965 1.04135,-0.79296 2.29687,-0.79296 1.17705,0 1.91277,0.22458 2.20703,0.67578 0.21579,0.31388 0.32227,0.6372 0.32227,0.9707 0.0981,-0.13732 0.23555,-0.30382 0.41211,-0.5 0.19617,-0.19617 0.59889,-0.46142 1.20703,-0.79492 0.60814,-0.3335 1.13864,-0.5 1.58984,-0.5 z m -38.00195,4.47266 c -0.62776,0 -1.25506,0.26524 -1.88281,0.79492 -0.62776,0.51005 -0.94141,1.05991 -0.94141,1.64843 h 3.70703 c 0.74546,0 1.11914,-0.31364 1.11914,-0.9414 0,-0.4512 -0.17813,-0.8152 -0.53125,-1.08985 -0.3335,-0.27464 -0.82333,-0.4121 -1.4707,-0.4121 z m 50.11719,0 c -0.62776,0 -1.25506,0.26524 -1.88282,0.79492 -0.62776,0.51005 -0.94336,1.05991 -0.94336,1.64843 h 3.70899 c 0.74546,0 1.11719,-0.31364 1.11719,-0.9414 0,-0.4512 -0.17619,-0.8152 -0.5293,-1.08985 -0.3335,-0.27464 -0.82333,-0.4121 -1.4707,-0.4121 z m 16.83984,0 c -0.62776,0 -1.25701,0.26524 -1.88477,0.79492 -0.62776,0.51005 -0.9414,1.05991 -0.9414,1.64843 h 3.70898 c 0.74547,0 1.11719,-0.31364 1.11719,-0.9414 0,-0.4512 -0.17618,-0.8152 -0.5293,-1.08985 -0.33349,-0.27464 -0.82332,-0.4121 -1.4707,-0.4121 z M 74.800781,543.25195 c 2.30225,0 3.736608,0.51027 4.302735,1.5293 0.301934,0.56613 0.472023,1.0764 0.509765,1.5293 0.07548,0.4529 0.111328,1.1124 0.111328,1.98047 v 26.21093 c 0,1.35871 0.113393,2.22805 0.339844,2.60547 0.226451,0.33968 0.71782,0.50977 1.472656,0.50977 0.792578,0 1.321745,0.0378 1.585938,0.11328 0.264192,0.0377 0.583519,0.18698 0.960937,0.45117 0.754836,0.49064 1.132813,1.83051 1.132813,4.01953 0,2.37774 -0.377977,3.83099 -1.132813,4.35938 -0.981286,0.67935 -3.320834,0.79274 -7.019531,0.33984 -2.906118,-0.37742 -4.792095,-1.3393 -5.660156,-2.88672 -1.056771,-1.84935 -1.585938,-4.79366 -1.585938,-8.83203 v -26.94726 c 0,-0.86807 0.0189,-1.50867 0.05664,-1.92383 0.07548,-0.4529 0.245573,-0.96317 0.509766,-1.5293 0.528385,-1.01903 2.00054,-1.5293 4.416016,-1.5293 z m 122.929689,1.64258 c 4.45353,0 8.66211,1.47216 12.625,4.41602 1.01903,0.75483 1.5293,1.60333 1.5293,2.54687 0,0.90581 -0.43468,1.96219 -1.30274,3.16992 -1.47193,2.00032 -2.81179,3.00196 -4.01953,3.00196 -0.71709,0 -1.86798,-0.51027 -3.45312,-1.5293 -1.58516,-1.05677 -3.47309,-1.58594 -5.66211,-1.58594 -2.86838,0 -5.41582,1.02054 -7.64258,3.0586 -2.22677,2.00031 -3.33985,4.64224 -3.33985,7.92578 0,3.24579 1.13198,6.01806 3.39649,8.32031 2.26451,2.26451 4.83084,3.39844 7.69922,3.39844 2.0758,0 3.94483,-0.34018 5.60547,-1.01953 v -6.17188 h -4.47266 c -1.17,0 -1.99959,-0.14924 -2.49024,-0.45117 -0.49063,-0.30194 -0.81192,-0.73662 -0.96289,-1.30273 -0.15096,-0.60387 -0.22656,-1.39762 -0.22656,-2.37891 0,-1.01903 0.0756,-1.82974 0.22656,-2.43359 0.18871,-0.60387 0.51,-1.01965 0.96289,-1.2461 0.67936,-0.33967 1.58455,-0.50781 2.7168,-0.50781 h 9.96485 c 2.03805,0.0755 3.28342,0.6027 3.73632,1.58398 0.37742,0.7171 0.56446,1.77348 0.56446,3.16993 v 12.45507 c 0,1.20774 -0.52722,2.35862 -1.58399,3.45313 -3.17031,3.28353 -7.92695,4.92578 -14.26758,4.92578 -5.62352,0 -10.51052,-2.11276 -14.6621,-6.33984 -4.1516,-4.26483 -6.22657,-9.3975 -6.22657,-15.39844 0,-6.00095 2.11276,-11.00328 6.33985,-15.00391 4.22708,-4.03837 9.20856,-6.05664 14.94531,-6.05664 z m -145.613282,0.33985 c 1.773863,0 3.565346,0.28348 5.376953,0.8496 1.849348,0.52839 3.245908,1.0745 4.189453,1.64063 l 1.359375,0.79297 c 0.679352,0.41516 1.206566,0.75534 1.583984,1.01953 0.981287,0.79258 1.472656,1.69777 1.472656,2.7168 0,0.98128 -0.396875,2.01877 -1.189453,3.11328 -1.47193,2.03805 -2.792895,3.05664 -3.96289,3.05664 -0.679353,0 -1.64124,-0.41382 -2.886719,-1.24414 -1.585156,-1.28322 -3.697918,-1.92578 -6.339844,-1.92578 -2.453217,0 -4.870313,0.85044 -7.248047,2.54882 -1.132254,0.83032 -2.075242,2.0001 -2.830078,3.50977 -0.754836,1.50967 -1.132812,3.22556 -1.132812,5.15039 0,1.88709 0.377976,3.58603 1.132812,5.0957 0.754836,1.50968 1.716723,2.69835 2.886719,3.56641 2.30225,1.66064 4.700447,2.49219 7.191406,2.49219 1.169996,0 2.264175,-0.15119 3.283203,-0.45313 1.056771,-0.30193 1.810771,-0.60431 2.263672,-0.90625 l 1.019531,-0.73633 c 1.283222,-0.75483 2.188412,-1.13281 2.716797,-1.13281 1.169996,0 2.434264,1.05834 3.792969,3.17188 0.83032,1.32096 1.246094,2.37734 1.246094,3.16992 0,0.79258 -0.264584,1.45208 -0.792969,1.98047 -0.490643,0.52838 -1.074554,1.00085 -1.753906,1.41601 -0.679353,0.41516 -1.340812,0.81204 -1.982422,1.18946 -0.603869,0.37741 -1.868137,0.86683 -3.792969,1.4707 -1.924832,0.60387 -3.79191,0.90625 -5.603515,0.90625 -1.773865,0 -3.586199,-0.22679 -5.435547,-0.67969 -1.811607,-0.49064 -3.699536,-1.28244 -5.66211,-2.37695 -1.924832,-1.13226 -3.659617,-2.49102 -5.207031,-4.07617 -1.547414,-1.6229 -2.830581,-3.68092 -3.849609,-6.17188 -0.981287,-2.5287 -1.472657,-5.26317 -1.472657,-8.20703 0,-2.94386 0.49137,-5.60469 1.472657,-7.98242 0.981286,-2.41548 2.226656,-4.3979 3.736328,-5.94531 1.547414,-1.58516 3.301098,-2.90612 5.263672,-3.96289 3.698696,-2.03806 7.417858,-3.05665 11.154297,-3.05664 z m 180.931642,11.43554 c 5.24611,0 9.09561,1.85013 11.54883,5.54883 1.28322,1.96257 1.92578,4.11313 1.92578,6.45313 0,2.30223 -0.58587,4.02008 -1.75586,5.15234 -1.13226,1.09451 -2.39652,1.64062 -3.79297,1.64062 h -13.41797 c 0,1.05677 0.62366,1.94307 1.86914,2.66016 1.24548,0.71709 2.49085,1.07617 3.73633,1.07617 2.18902,0 3.90686,-0.22678 5.15234,-0.67969 l 0.6211,-0.22656 c 0.9058,-0.41516 1.66175,-0.62109 2.26562,-0.62109 1.20774,0 2.24522,0.84849 3.11328,2.54687 0.49065,1.01903 0.73633,1.88642 0.73633,2.60352 0,3.35902 -4.01959,5.03906 -12.05859,5.03906 -2.7929,0 -5.28363,-0.47247 -7.47266,-1.41601 -2.15128,-0.98129 -3.83132,-2.26446 -5.03906,-3.84961 -2.37773,-3.05709 -3.56641,-6.47192 -3.56641,-10.2461 0,-4.75546 1.52885,-8.54827 4.58594,-11.3789 3.09483,-2.86838 6.94433,-4.30274 11.54883,-4.30274 z m -98.58594,0.0566 c 2.67967,0 5.43499,0.64061 8.26563,1.92383 1.32096,0.60387 1.98046,1.35982 1.98046,2.26563 0,0.9058 -0.41382,2.01888 -1.24414,3.33984 -0.83032,1.32096 -1.68076,1.98047 -2.54882,1.98047 -0.45291,0 -1.3014,-0.28153 -2.54688,-0.84766 -1.20774,-0.56613 -2.5287,-0.84961 -3.96289,-0.84961 -2.22677,0 -3.33984,0.41578 -3.33984,1.2461 0,1.13225 1.28316,1.86735 3.84961,2.20703 2.49095,0.26419 4.9061,0.98235 7.24609,2.15234 1.09451,0.52839 1.9997,1.45248 2.7168,2.77344 0.75483,1.28322 1.13281,2.90657 1.13281,4.86914 0,1.96257 -0.37798,3.64066 -1.13281,5.03711 -0.7171,1.3587 -1.73568,2.37924 -3.05664,3.05859 -2.41548,1.17 -5.45428,1.75391 -9.11524,1.75391 -3.62321,0 -7.11364,-1.05638 -10.47265,-3.16992 -0.7171,-0.4529 -1.07618,-1.17106 -1.07618,-2.15235 0,-0.98128 0.71816,-2.47038 2.15235,-4.4707 0.41516,-0.64161 1.07466,-0.96289 1.98047,-0.96289 0.94354,0 2.20781,0.47052 3.79296,1.41406 1.58516,0.90581 3.01952,1.35938 4.30274,1.35938 2.30225,0 3.45312,-0.45357 3.45312,-1.35938 0,-0.71709 -1.26427,-1.24431 -3.79296,-1.58398 -2.37774,-0.33968 -4.73619,-1.22597 -7.07618,-2.66016 -1.09451,-0.67935 -1.9997,-1.73769 -2.71679,-3.17187 -0.7171,-1.47193 -1.07618,-3.20673 -1.07618,-5.20703 0,-5.96321 4.09519,-8.94532 12.28516,-8.94532 z m 27.64258,0 c 2.67967,0 5.43499,0.64061 8.26562,1.92383 1.32097,0.60387 1.98243,1.35982 1.98243,2.26563 0,0.9058 -0.41578,2.01888 -1.2461,3.33984 -0.83032,1.32096 -1.67881,1.98047 -2.54687,1.98047 -0.4529,0 -1.30335,-0.28153 -2.54883,-0.84766 -1.20774,-0.56613 -2.5287,-0.84961 -3.96289,-0.84961 -2.22677,0 -3.33985,0.41578 -3.33985,1.2461 0,1.13225 1.28317,1.86735 3.84961,2.20703 2.49096,0.26419 4.90611,0.98235 7.2461,2.15234 1.09451,0.52839 2.00165,1.45248 2.71875,2.77344 0.75483,1.28322 1.13086,2.90657 1.13086,4.86914 0,1.96257 -0.37603,3.64066 -1.13086,5.03711 -0.7171,1.3587 -1.73763,2.37924 -3.0586,3.05859 -2.41547,1.17 -5.45232,1.75391 -9.11328,1.75391 -3.62321,0 -7.11559,-1.05638 -10.47461,-3.16992 -0.71709,-0.4529 -1.07422,-1.17106 -1.07422,-2.15235 0,-0.98128 0.71622,-2.47038 2.15039,-4.4707 0.41516,-0.64161 1.07662,-0.96289 1.98243,-0.96289 0.94354,0 2.20781,0.47052 3.79297,1.41406 1.58515,0.90581 3.01756,1.35938 4.30078,1.35938 2.30225,0 3.45508,-0.45357 3.45508,-1.35938 0,-0.71709 -1.26427,-1.24431 -3.79297,-1.58398 -2.37774,-0.33968 -4.73814,-1.22597 -7.07813,-2.66016 -1.09451,-0.67935 -1.9997,-1.73769 -2.7168,-3.17187 -0.71709,-1.47193 -1.07617,-3.20673 -1.07617,-5.20703 0,-5.96321 4.09519,-8.94532 12.28516,-8.94532 z m -49.98828,0.56641 c 1.47193,0 2.56611,0.11339 3.2832,0.33984 0.71709,0.22645 1.20846,0.62138 1.47266,1.1875 0.30193,0.56613 0.47202,1.0764 0.50976,1.5293 0.0755,0.41516 0.11328,1.05577 0.11328,1.92383 v 19.81445 c 0,0.86806 -0.0378,1.52952 -0.11328,1.98242 -0.0377,0.41516 -0.18893,0.90653 -0.45312,1.47266 -0.52839,0.98129 -1.83045,1.4707 -3.90625,1.4707 -2.03806,0 -3.41572,-0.24568 -4.13282,-0.73633 -0.67934,-0.52838 -1.07622,-1.28238 -1.18945,-2.26367 -1.39644,2.00032 -3.73599,3 -7.01953,3 -3.245793,0 -6.2657,-1.49105 -9.058593,-4.47265 -2.792893,-2.98161 -4.1875,-6.43423 -4.1875,-10.35938 0,-3.96289 1.394607,-7.41551 4.1875,-10.35937 2.830635,-2.98161 5.926139,-4.47266 9.285153,-4.47266 1.28322,0 2.453,0.22679 3.50977,0.67969 1.05677,0.4529 1.79382,0.88562 2.20898,1.30078 0.41516,0.37742 0.75339,0.75539 1.01758,1.13281 0.22645,-2.11354 1.71751,-3.16992 4.47266,-3.16992 z m 143.02539,0 c 2.30225,0 3.71771,0.43272 4.24609,1.30078 0.37742,0.64161 0.56641,1.41646 0.56641,2.32227 0.15097,-0.2642 0.49114,-0.64217 1.01953,-1.13282 0.52838,-0.49064 1.0367,-0.88752 1.52734,-1.18945 1.28322,-0.86806 2.69868,-1.30078 4.2461,-1.30078 3.77418,0 6.90748,1.45326 9.39843,4.35937 2.5287,2.86838 3.79297,6.3777 3.79297,10.5293 v 9.96289 c 0,0.86806 -0.0378,1.52952 -0.11328,1.98242 -0.0377,0.41516 -0.18893,0.88763 -0.45312,1.41602 -0.52839,1.01903 -2.00054,1.52734 -4.41602,1.52734 -2.67967,0 -4.22742,-0.6973 -4.64258,-2.09375 -0.22645,-0.64161 -0.33984,-1.60545 -0.33984,-2.88867 V 572.125 c 0,-1.54741 -0.45162,-2.75499 -1.35742,-3.62305 -0.86806,-0.86806 -2.05674,-1.30273 -3.56641,-1.30273 -1.47193,0 -2.68145,0.45357 -3.625,1.35937 -0.9058,0.90581 -1.35742,2.09448 -1.35742,3.56641 v 10.01953 c 0,0.86806 -0.0378,1.52952 -0.11328,1.98242 -0.0377,0.41516 -0.20783,0.88763 -0.50977,1.41602 -0.49064,1.01903 -1.9439,1.52734 -4.35937,1.52734 -2.37774,0 -3.83099,-0.50831 -4.35938,-1.52734 -0.26419,-0.56613 -0.43428,-1.0575 -0.50976,-1.47266 -0.0377,-0.4529 -0.0566,-1.11436 -0.0566,-1.98242 v -20.03906 c 0,-0.83032 0.0189,-1.45398 0.0566,-1.86914 0.0755,-0.4529 0.26447,-0.94427 0.5664,-1.47266 0.52839,-0.94354 1.98164,-1.41406 4.35938,-1.41406 z m -22.26367,8.32226 c -1.20774,0 -2.41531,0.50832 -3.62305,1.52735 -1.20774,0.98128 -1.8125,2.03767 -1.8125,3.16992 h 7.13476 c 1.43419,0 2.1504,-0.60281 2.1504,-1.81055 0,-0.86806 -0.34018,-1.56731 -1.01954,-2.0957 -0.64161,-0.52839 -1.58459,-0.79102 -2.83007,-0.79102 z m -130.55469,1.58399 c -1.47193,0 -2.679503,0.52917 -3.623048,1.58594 -0.905803,1.05677 -1.359375,2.20764 -1.359375,3.45312 0,1.24548 0.491369,2.37746 1.472656,3.39649 0.981287,0.98128 2.169957,1.47265 3.566407,1.47265 1.39645,0 2.54732,-0.51027 3.45312,-1.5293 0.94355,-1.01901 1.41602,-2.1321 1.41602,-3.33984 0,-1.24548 -0.45357,-2.39635 -1.35938,-3.45312 -0.86805,-1.05677 -2.05673,-1.58594 -3.5664,-1.58594 z m 14.49414,26.05469 c 1.19667,0 1.94207,0.26525 2.23633,0.79492 0.15694,0.29426 0.24405,0.55951 0.26367,0.79492 0.0392,0.23541 0.0606,0.57809 0.0606,1.0293 v 13.625 c 0,0.70623 0.0581,1.15734 0.17578,1.35351 0.1177,0.17656 0.37327,0.26367 0.76562,0.26367 0.41197,0 0.6869,0.0213 0.82422,0.0606 0.13732,0.0196 0.30383,0.097 0.5,0.23438 0.39235,0.25502 0.58789,0.95203 0.58789,2.08984 0,1.2359 -0.19554,1.99098 -0.58789,2.26562 -0.51005,0.35312 -1.72788,0.4112 -3.65039,0.17579 -1.51055,-0.19618 -2.4902,-0.69569 -2.94141,-1.5 -0.54929,-0.96126 -0.82421,-2.49078 -0.82421,-4.58985 v -14.00781 c 0,-0.4512 0.01,-0.78421 0.0293,-1 0.0392,-0.23541 0.12831,-0.50066 0.26563,-0.79492 0.27464,-0.52967 1.0394,-0.79492 2.29492,-0.79492 z m 151.55664,0 c 0.94164,0 1.60765,0.1665 2,0.5 0.3335,0.27464 0.50968,0.70639 0.5293,1.29492 0.0196,0.17656 0.0312,0.45148 0.0312,0.82422 v 9.32812 c 0.35311,-0.29426 0.88166,-0.79377 1.58789,-1.5 0.72584,-0.70623 1.26602,-1.20769 1.61914,-1.50195 l 0.35351,-0.23438 c 0.68662,-0.52967 1.27519,-0.79492 1.76563,-0.79492 0.49044,0 1.04802,0.40272 1.67578,1.20703 0.64738,0.7847 0.9707,1.40232 0.9707,1.85352 0,0.4512 -0.36204,0.97975 -1.08789,1.58789 l -2.91406,2.47266 3.91406,3.23632 c 0.49044,0.41197 0.79441,0.72562 0.91211,0.94141 0.13732,0.21579 0.20703,0.42297 0.20703,0.61914 0,0.47082 -0.30396,1.10779 -0.91211,1.91211 -0.66699,0.82393 -1.25557,1.23633 -1.76562,1.23633 -0.43159,0 -1.02984,-0.28461 -1.79492,-0.85352 l -0.29492,-0.20508 c -0.45121,-0.37273 -1.14821,-1.02133 -2.08985,-1.94335 -0.94164,-0.94164 -1.65605,-1.60766 -2.14648,-2 V 613.5 c 0,0.4512 -0.0213,0.79389 -0.0605,1.0293 -0.0196,0.21579 -0.10673,0.47136 -0.26367,0.76562 -0.25503,0.51006 -1.01011,0.76563 -2.26563,0.76563 -1.2359,0 -1.99098,-0.26525 -2.26562,-0.79493 -0.13732,-0.29426 -0.22639,-0.54983 -0.26563,-0.76562 -0.0196,-0.23541 -0.0293,-0.57809 -0.0293,-1.0293 v -17.62695 c 0,-0.4512 0.01,-0.78421 0.0293,-1 0.0392,-0.23541 0.12831,-0.50066 0.26563,-0.79492 0.27464,-0.52967 1.0394,-0.79492 2.29492,-0.79492 z m -214.605469,0.0586 c 1.235902,0 1.981301,0.26525 2.236328,0.79492 0.15694,0.29426 0.246008,0.55951 0.265625,0.79492 0.03923,0.2158 0.05859,0.5488 0.05859,1 0,0.45121 -0.01936,0.79389 -0.05859,1.0293 -0.01962,0.21579 -0.108685,0.47136 -0.265625,0.76563 -0.137322,0.27464 -0.390939,0.47213 -0.763671,0.58984 -0.372733,0.1177 -0.874194,0.17578 -1.501954,0.17578 -0.608142,0 -1.097971,-0.0581 -1.470703,-0.17578 -0.372732,-0.11771 -0.637982,-0.32488 -0.794922,-0.61914 -0.137322,-0.29426 -0.22639,-0.54983 -0.265625,-0.76563 -0.01962,-0.23541 -0.0293,-0.57809 -0.0293,-1.02929 0,-0.45121 0.0097,-0.78421 0.0293,-1 0.03923,-0.23541 0.128303,-0.49098 0.265625,-0.76563 0.274645,-0.52967 1.039404,-0.79492 2.294922,-0.79492 z m 24.771485,0 c 1.235901,0 1.981301,0.26525 2.236328,0.79492 0.15694,0.29426 0.246007,0.55951 0.265625,0.79492 0.03924,0.2158 0.05859,0.5488 0.05859,1 0,0.45121 -0.01936,0.79389 -0.05859,1.0293 -0.01962,0.21579 -0.108685,0.47136 -0.265625,0.76563 -0.137323,0.27464 -0.392893,0.47213 -0.765625,0.58984 -0.372732,0.1177 -0.872241,0.17578 -1.5,0.17578 -0.608142,0 -1.097971,-0.0581 -1.470703,-0.17578 -0.372732,-0.11771 -0.637982,-0.32488 -0.794922,-0.61914 -0.137323,-0.29426 -0.22639,-0.54983 -0.265625,-0.76563 -0.01962,-0.23541 -0.0293,-0.57809 -0.0293,-1.02929 0,-0.45121 0.0097,-0.78421 0.0293,-1 0.03924,-0.23541 0.128302,-0.49098 0.265625,-0.76563 0.274644,-0.52967 1.039403,-0.79492 2.294922,-0.79492 z m 112.767574,0 c 0.62776,0 1.12922,0.06 1.50196,0.17773 0.37273,0.11771 0.62635,0.32293 0.76367,0.61719 0.15694,0.29426 0.24601,0.55951 0.26562,0.79492 0.0392,0.2158 0.0586,0.5488 0.0586,1 v 17.56836 c 0,0.45121 -0.0194,0.79389 -0.0586,1.0293 -0.0196,0.21579 -0.10868,0.46168 -0.26562,0.73633 -0.29426,0.52967 -1.12678,0.79297 -2.5,0.79297 -1.35361,0 -2.10869,-0.48015 -2.26563,-1.44141 -0.82393,0.94164 -1.97204,1.41211 -3.44336,1.41211 -1.76557,0 -3.37447,-0.76476 -4.82617,-2.29492 -1.45169,-1.54978 -2.17773,-3.34455 -2.17773,-5.38477 0,-2.05983 0.72604,-3.86428 2.17773,-5.41406 1.47131,-1.54978 3.08022,-2.32422 4.82617,-2.32422 1.4517,0 2.5785,0.48983 3.38282,1.4707 v -6.17968 c 0,-0.45121 0.0116,-0.78421 0.0312,-1 0.0392,-0.23541 0.12635,-0.49098 0.26367,-0.76563 0.15694,-0.29426 0.42219,-0.49948 0.79492,-0.61719 0.37273,-0.1177 0.86256,-0.17773 1.4707,-0.17773 z m 24.36329,0 c 1.2359,0 1.9813,0.26525 2.23632,0.79492 0.15694,0.29426 0.24601,0.55951 0.26563,0.79492 0.0392,0.2158 0.0586,0.5488 0.0586,1 v 6.1211 c 0.7847,-0.96126 1.90182,-1.44141 3.35352,-1.44141 1.74595,0 3.34518,0.77444 4.79687,2.32422 1.47131,1.54978 2.20703,3.35423 2.20703,5.41406 0,2.04022 -0.72604,3.83499 -2.17773,5.38477 -1.45169,1.53016 -3.01025,2.29492 -4.67773,2.29492 -1.66749,0 -2.85432,-0.47047 -3.56055,-1.41211 -0.15694,0.96126 -1.00109,1.44141 -2.53125,1.44141 -1.2359,0 -1.99098,-0.2633 -2.26563,-0.79297 -0.13732,-0.29426 -0.22639,-0.54983 -0.26562,-0.76563 -0.0196,-0.23541 -0.0293,-0.57809 -0.0293,-1.02929 v -17.56836 c 0,-0.45121 0.01,-0.78421 0.0293,-1 0.0392,-0.23541 0.1283,-0.49098 0.26562,-0.76563 0.27465,-0.52967 1.03941,-0.79492 2.29493,-0.79492 z m -182.562505,1.14844 5.443359,0.0293 c 2.844535,0 5.345984,1.03001 7.503907,3.08985 2.157922,2.04022 3.236328,4.56102 3.236328,7.5625 0,2.98186 -1.059047,5.54138 -3.177735,7.67969 -2.09907,2.1383 -4.648916,3.20703 -7.65039,3.20703 h -5.384766 c -1.196666,0 -1.942066,-0.24394 -2.236328,-0.73438 -0.23541,-0.41197 -0.353516,-1.03926 -0.353516,-1.88281 v -16.36133 c 0,-0.47082 0.0097,-0.81546 0.0293,-1.03125 0.03923,-0.21579 0.137982,-0.46941 0.294922,-0.76367 0.274645,-0.52967 1.039403,-0.79492 2.294922,-0.79492 z m 54.931641,0.79492 c 1.333988,0 2.129738,0.36204 2.384765,1.08789 0.09809,0.31388 0.146485,0.81534 0.146485,1.50195 v 2.88282 c 0.863169,-0.0785 1.509821,-0.11719 1.941406,-0.11719 0.451202,0 0.786161,0.0194 1.001953,0.0586 0.23541,0.0196 0.498707,0.10673 0.792969,0.26367 0.510054,0.25503 0.765625,1.01206 0.765625,2.26758 0,1.2359 -0.26525,1.99098 -0.794922,2.26563 -0.294262,0.13732 -0.559512,0.22443 -0.794922,0.26367 -0.215792,0.0196 -0.548798,0.0293 -1,0.0293 l -1.912109,-0.11719 v 4.06054 c 0,0.52968 0.07743,0.91303 0.234375,1.14844 0.176557,0.23541 0.492157,0.35352 0.943359,0.35352 0.47082,0 0.823184,0.0194 1.058594,0.0586 0.255027,0.0196 0.520277,0.10673 0.794922,0.26367 0.451202,0.25503 0.675781,0.91332 0.675781,1.97266 0,1.2359 -0.274929,1.99098 -0.824219,2.26562 -0.294262,0.13733 -0.557559,0.22444 -0.792969,0.26368 -0.215792,0.0196 -0.541071,0.0312 -0.972656,0.0312 -2.040218,0 -3.589093,-0.46275 -4.648437,-1.38477 -1.059344,-0.92202 -1.589844,-2.48058 -1.589844,-4.67773 v -4.35547 c -0.372732,0.0589 -0.773494,0.0879 -1.205078,0.0879 -0.431585,0 -0.795582,-0.1665 -1.089844,-0.5 -0.274645,-0.3335 -0.412109,-0.90272 -0.412109,-1.70703 0,-0.80432 0.05035,-1.38322 0.148437,-1.73633 0.09809,-0.37273 0.235552,-0.63603 0.41211,-0.79297 0.313879,-0.25503 0.704961,-0.38281 1.175781,-0.38281 l 0.970703,0.11719 v -3.03125 c 0,-0.45121 0.0097,-0.78421 0.0293,-1 0.03924,-0.2158 0.137982,-0.45201 0.294922,-0.70704 0.255027,-0.49043 1.010106,-0.73437 2.265625,-0.73437 z m -52.341797,4.44336 v 11.12305 h 2.853515 c 1.412459,0 2.688358,-0.52082 3.826172,-1.56055 1.137814,-1.05935 1.707031,-2.38364 1.707032,-3.97266 0,-1.58901 -0.559539,-2.91331 -1.677735,-3.97265 -1.098579,-1.07897 -2.393837,-1.61719 -3.884765,-1.61719 z m 202.478511,0.5 c 2.11869,0 3.99089,0.76476 5.61915,2.29492 1.62825,1.51055 2.44335,3.44278 2.44335,5.79688 0,1.62825 -0.42207,3.08033 -1.26562,4.35546 -0.84355,1.25552 -1.87356,2.18678 -3.08984,2.79493 -1.19667,0.58852 -2.44353,0.88281 -3.73829,0.88281 -1.29475,0 -2.54934,-0.31365 -3.76562,-0.94141 -1.21628,-0.64737 -2.24629,-1.58831 -3.08984,-2.82422 -0.82394,-1.25551 -1.23633,-2.66888 -1.23633,-4.23828 0,-2.3541 0.82479,-4.29601 2.47265,-5.82617 1.64787,-1.53016 3.53171,-2.29492 5.65039,-2.29492 z m 17.64258,0 c 2.11869,0 3.99285,0.76476 5.6211,2.29492 1.62825,1.51055 2.44336,3.44278 2.44336,5.79688 0,1.62825 -0.42208,3.08033 -1.26563,4.35546 -0.84355,1.25552 -1.87356,2.18678 -3.08984,2.79493 -1.19667,0.58852 -2.44353,0.88281 -3.73828,0.88281 -1.29476,0 -2.54935,-0.31365 -3.76563,-0.94141 -1.21628,-0.64737 -2.24629,-1.58831 -3.08984,-2.82422 -0.82394,-1.25551 -1.23633,-2.66888 -1.23633,-4.23828 0,-2.3541 0.82479,-4.29601 2.47266,-5.82617 1.64786,-1.53016 3.52974,-2.29492 5.64843,-2.29492 z m -51.63281,0.0293 c 2.72683,0 4.72877,0.9603 6.00391,2.88281 0.66699,1.02011 1,2.13918 1,3.35547 0,1.19666 -0.30397,2.08921 -0.91211,2.67773 -0.58853,0.56891 -1.24681,0.85352 -1.97266,0.85352 h -6.97266 c 0,0.54929 0.32333,1.01008 0.97071,1.38281 0.64737,0.37273 1.29403,0.55859 1.9414,0.55859 1.13782,0 2.03036,-0.1181 2.67774,-0.35351 l 0.32422,-0.11719 c 0.47082,-0.21579 0.86385,-0.32422 1.17773,-0.32422 0.62776,0 1.16599,0.44143 1.61719,1.32422 0.25503,0.52967 0.38281,0.98274 0.38281,1.35547 0,1.74595 -2.08905,2.61719 -6.26758,2.61719 -1.45169,0 -2.74695,-0.24394 -3.88476,-0.73438 -1.1182,-0.51005 -1.99138,-1.17802 -2.61914,-2.00195 -1.2359,-1.58902 -1.85352,-3.36443 -1.85352,-5.32617 0,-2.47181 0.79575,-4.44276 2.38477,-5.91407 1.60863,-1.49092 3.60862,-2.23632 6.00195,-2.23632 z m -47.32031,0.17578 c 0.47082,0 0.86385,0.031 1.17773,0.0898 0.31388,0.0392 0.65657,0.11667 1.0293,0.23438 0.37273,0.1177 0.6767,0.32292 0.91211,0.61718 0.25503,0.27465 0.38281,0.72576 0.38281,1.35352 0,0.62776 -0.18586,1.31508 -0.55859,2.06055 -0.37274,0.74546 -0.91291,1.11914 -1.61914,1.11914 -0.35312,0 -0.6958,-0.0794 -1.0293,-0.23633 -0.31388,-0.15694 -0.73595,-0.23438 -1.26563,-0.23438 -0.52967,0 -1.02918,0.18586 -1.5,0.5586 -0.4512,0.37273 -0.67773,0.82384 -0.67773,1.35351 V 613.5 c 0,0.4512 -0.0194,0.79389 -0.0586,1.0293 -0.0196,0.21579 -0.10869,0.47136 -0.26563,0.76562 -0.29426,0.51006 -1.05902,0.76563 -2.29492,0.76563 -0.94164,0 -1.61733,-0.16846 -2.0293,-0.50196 -0.31388,-0.27464 -0.49201,-0.69476 -0.53125,-1.26367 v -0.85351 -10.33008 c 0,-0.4512 0.0116,-0.78421 0.0312,-1 0.0392,-0.23541 0.12635,-0.49098 0.26367,-0.76563 0.27465,-0.52967 1.03941,-0.79297 2.29493,-0.79297 1.17705,0 1.91277,0.22458 2.20703,0.67579 0.21579,0.31388 0.32422,0.6372 0.32422,0.9707 0.0981,-0.13732 0.23555,-0.30383 0.41211,-0.5 0.19617,-0.19618 0.59888,-0.46143 1.20703,-0.79492 0.60814,-0.3335 1.13669,-0.5 1.58789,-0.5 z m -86.033206,0.0898 c 0.765082,0 1.322667,0.0581 1.675782,0.17578 0.353114,0.11771 0.599005,0.32293 0.736328,0.61719 0.15694,0.27464 0.246007,0.52054 0.265625,0.73633 0.03924,0.21579 0.05859,0.5488 0.05859,1 v 12.18359 c 0,2.25601 -0.78607,4.07014 -2.355468,5.44336 -1.569399,1.39284 -3.335127,2.08984 -5.296875,2.08984 -1.490929,0 -2.912019,-0.36399 -4.265625,-1.08984 -1.353606,-0.72585 -2.03125,-1.38218 -2.03125,-1.9707 0,-0.76508 0.294288,-1.44273 0.882812,-2.03125 0.372732,-0.41197 0.657341,-0.69658 0.853516,-0.85352 0.215792,-0.15694 0.461683,-0.23437 0.736328,-0.23437 0.274645,0 0.559253,0.11615 0.853516,0.35156 0.941639,0.72585 1.961968,1.08984 3.060546,1.08984 0.745465,0 1.3534,-0.29428 1.824219,-0.88281 0.47082,-0.58852 0.705078,-1.29521 0.705078,-2.11914 v -0.88281 c -0.745464,0.98087 -1.932296,1.4707 -3.560547,1.4707 -1.62825,0 -3.157767,-0.7454 -4.589843,-2.23633 -1.412459,-1.51054 -2.119141,-3.26464 -2.119141,-5.26562 0,-2.00099 0.716362,-3.75703 2.148438,-5.26758 1.432076,-1.51055 3.002263,-2.26563 4.708984,-2.26563 0.666994,0 1.274929,0.12584 1.824219,0.38086 0.549289,0.23541 0.921012,0.46195 1.117187,0.67774 0.215793,0.19617 0.382295,0.38203 0.5,0.55859 0.05885,-0.54929 0.256347,-0.96168 0.589844,-1.23633 0.353115,-0.29426 0.912653,-0.43945 1.677734,-0.43945 z m 72.587896,0 c 0.76508,0 1.32461,0.0581 1.67773,0.17578 0.35311,0.11771 0.59705,0.32293 0.73437,0.61719 0.15694,0.27464 0.24601,0.52054 0.26563,0.73633 0.0392,0.21579 0.0586,0.5488 0.0586,1 v 12.18359 c 0,2.25601 -0.78411,4.07014 -2.35351,5.44336 -1.5694,1.39284 -3.33513,2.08984 -5.29688,2.08984 -1.49093,0 -2.91397,-0.36399 -4.26758,-1.08984 -1.3536,-0.72585 -2.02929,-1.38218 -2.02929,-1.9707 0,-0.76508 0.29429,-1.44273 0.88281,-2.03125 0.37273,-0.41197 0.65734,-0.69658 0.85352,-0.85352 0.21579,-0.15694 0.45973,-0.23437 0.73437,-0.23437 0.27465,0 0.55925,0.11615 0.85352,0.35156 0.94164,0.72585 1.96196,1.08984 3.06054,1.08984 0.74547,0 1.3534,-0.29428 1.82422,-0.88281 0.47082,-0.58852 0.70703,-1.29521 0.70703,-2.11914 v -0.88281 c -0.74546,0.98087 -1.93229,1.4707 -3.56054,1.4707 -1.62825,0 -3.15972,-0.7454 -4.5918,-2.23633 -1.41246,-1.51054 -2.11719,-3.26464 -2.11719,-5.26562 0,-2.00099 0.71441,-3.75703 2.14649,-5.26758 1.43207,-1.51055 3.00226,-2.26563 4.70898,-2.26563 0.66699,0 1.27493,0.12584 1.82422,0.38086 0.54929,0.23541 0.92297,0.46195 1.11914,0.67774 0.21579,0.19617 0.3823,0.38203 0.5,0.55859 0.0589,-0.54929 0.25439,-0.96168 0.58789,-1.23633 0.35312,-0.29426 0.91265,-0.43945 1.67774,-0.43945 z m -34.33399,0.0586 c 0.76508,0 1.3343,0.0581 1.70703,0.17579 0.37273,0.1177 0.62635,0.32292 0.76367,0.61718 0.15694,0.29427 0.24601,0.55952 0.26563,0.79492 0.0392,0.2158 0.0586,0.5488 0.0586,1 v 10.30079 c 0,0.4512 -0.0194,0.79388 -0.0586,1.02929 -0.0196,0.2158 -0.099,0.47137 -0.23633,0.76563 -0.27464,0.51005 -0.95033,0.76367 -2.0293,0.76367 -1.05934,0 -1.7757,-0.12583 -2.14843,-0.38086 -0.35312,-0.27464 -0.55834,-0.66768 -0.61719,-1.17773 -0.72585,1.03972 -1.94367,1.55859 -3.65039,1.55859 -1.68711,0 -3.25534,-0.77444 -4.707033,-2.32422 -1.451694,-1.54978 -2.177734,-3.34455 -2.177735,-5.38476 0,-2.05984 0.726041,-3.85461 2.177735,-5.38477 1.471311,-1.54978 3.080213,-2.32422 4.826173,-2.32422 0.66699,0 1.27493,0.11615 1.82422,0.35156 0.54929,0.23541 0.93069,0.46195 1.14648,0.67774 0.21579,0.19617 0.39393,0.39171 0.53125,0.58789 0.11771,-1.09858 0.89214,-1.64649 2.32422,-1.64649 z m 64.42773,0 c 0.76509,0 1.3343,0.0581 1.70704,0.17579 0.37273,0.1177 0.62635,0.32292 0.76367,0.61718 0.15694,0.29427 0.24601,0.55952 0.26562,0.79492 0.0392,0.2158 0.0586,0.5488 0.0586,1 v 10.30079 c 0,0.4512 -0.0194,0.79388 -0.0586,1.02929 -0.0196,0.2158 -0.099,0.47137 -0.23633,0.76563 -0.27464,0.51005 -0.95033,0.76367 -2.02929,0.76367 -1.05935,0 -1.77571,-0.12583 -2.14844,-0.38086 -0.35311,-0.27464 -0.56029,-0.66768 -0.61914,-1.17773 -0.72585,1.03972 -1.94172,1.55859 -3.64844,1.55859 -1.6871,0 -3.25534,-0.77444 -4.70703,-2.32422 -1.45169,-1.54978 -2.17773,-3.34455 -2.17773,-5.38476 0,-2.05984 0.72604,-3.85461 2.17773,-5.38477 1.47131,-1.54978 3.08022,-2.32422 4.82617,-2.32422 0.667,0 1.27493,0.11615 1.82422,0.35156 0.54929,0.23541 0.93069,0.46195 1.14649,0.67774 0.21579,0.19617 0.39197,0.39171 0.52929,0.58789 0.11771,-1.09858 0.8941,-1.64649 2.32617,-1.64649 z m -119.746089,0.0293 c 0.941639,0 1.609604,0.1665 2.001953,0.5 0.333498,0.27465 0.50968,0.69672 0.529297,1.26563 0.01962,0.19617 0.0293,0.48078 0.0293,0.85351 V 613.5 c 0,0.4512 -0.01936,0.79389 -0.05859,1.0293 -0.01962,0.21579 -0.108685,0.47136 -0.265625,0.76562 -0.255027,0.51006 -1.010106,0.76563 -2.265625,0.76563 -1.235901,0 -1.99098,-0.26525 -2.265625,-0.79493 -0.137322,-0.29426 -0.22639,-0.54983 -0.265625,-0.76562 -0.01962,-0.21579 -0.0293,-0.55848 -0.0293,-1.0293 v -10.33008 c 0,-0.4512 0.0097,-0.7842 0.0293,-1 0.03923,-0.2354 0.128303,-0.50065 0.265625,-0.79492 0.274645,-0.51005 1.039404,-0.76367 2.294922,-0.76367 z m 24.771485,0 c 0.941639,0 1.60765,0.1665 2,0.5 0.333497,0.27465 0.511632,0.69672 0.53125,1.26563 0.01962,0.19617 0.0293,0.48078 0.0293,0.85351 V 613.5 c 0,0.4512 -0.01936,0.79389 -0.05859,1.0293 -0.01962,0.21579 -0.108685,0.47136 -0.265625,0.76562 -0.255027,0.51006 -1.010107,0.76563 -2.265625,0.76563 -1.235902,0 -1.990981,-0.26525 -2.265625,-0.79493 -0.137323,-0.29426 -0.22639,-0.54983 -0.265625,-0.76562 -0.01962,-0.21579 -0.0293,-0.55848 -0.0293,-1.0293 v -10.33008 c 0,-0.4512 0.0097,-0.7842 0.0293,-1 0.03924,-0.2354 0.128302,-0.50065 0.265625,-0.79492 0.274644,-0.51005 1.039403,-0.76367 2.294922,-0.76367 z m 125.558594,4.29492 c -0.62776,0 -1.25505,0.26525 -1.88281,0.79493 -0.62776,0.51005 -0.94141,1.05991 -0.94141,1.64843 h 3.70703 c 0.74547,0 1.11719,-0.31364 1.11719,-0.9414 0,-0.45121 -0.17618,-0.8152 -0.5293,-1.08985 -0.33349,-0.27464 -0.82332,-0.41211 -1.4707,-0.41211 z m 34.04687,0.5 c -0.70622,0 -1.36256,0.24589 -1.9707,0.73633 -0.60814,0.49044 -0.91211,1.21648 -0.91211,2.17774 0,0.94163 0.31365,1.658 0.94141,2.14843 0.62776,0.47082 1.26473,0.70508 1.91211,0.70508 0.64737,0 1.29598,-0.24394 1.94336,-0.73437 0.64737,-0.49044 0.9707,-1.21648 0.9707,-2.17774 0,-0.96125 -0.30397,-1.67762 -0.91211,-2.14844 -0.60814,-0.47082 -1.26643,-0.70703 -1.97266,-0.70703 z m 17.64454,0 c -0.70623,0 -1.36257,0.24589 -1.97071,0.73633 -0.60814,0.49044 -0.91211,1.21648 -0.91211,2.17774 0,0.94163 0.31365,1.658 0.94141,2.14843 0.62776,0.47082 1.26473,0.70508 1.91211,0.70508 0.64738,0 1.29598,-0.24394 1.94336,-0.73437 0.64737,-0.49044 0.9707,-1.21648 0.9707,-2.17774 0,-0.96125 -0.30397,-1.67762 -0.91211,-2.14844 -0.60814,-0.47082 -1.26643,-0.70703 -1.97265,-0.70703 z m -189.931645,0.17774 c -0.765082,0 -1.382696,0.26525 -1.853516,0.79492 -0.470819,0.52967 -0.705078,1.11825 -0.705078,1.76562 0,0.62776 0.243938,1.19503 0.734375,1.70508 0.510055,0.51006 1.11799,0.76563 1.824219,0.76563 0.725847,0 1.324102,-0.25557 1.794922,-0.76563 0.470819,-0.52967 0.707031,-1.09693 0.707031,-1.70508 0,-0.62775 -0.226532,-1.20665 -0.677734,-1.73632 -0.451202,-0.54929 -1.059137,-0.82422 -1.824219,-0.82422 z m 72.589845,0 c -0.76508,0 -1.38465,0.26525 -1.85547,0.79492 -0.47082,0.52967 -0.70508,1.11825 -0.70508,1.76562 0,0.62776 0.24589,1.19503 0.73633,1.70508 0.51005,0.51006 1.11799,0.76563 1.82422,0.76563 0.72585,0 1.3241,-0.25557 1.79492,-0.76563 0.47082,-0.52967 0.70508,-1.09693 0.70508,-1.70508 0,-0.62775 -0.22458,-1.20665 -0.67578,-1.73632 -0.4512,-0.54929 -1.05914,-0.82422 -1.82422,-0.82422 z m -34.45313,0.14648 c -0.76508,0 -1.39237,0.27493 -1.88281,0.82422 -0.47082,0.54929 -0.70508,1.14755 -0.70508,1.79492 0,0.64738 0.25362,1.23596 0.76368,1.76563 0.51005,0.51005 1.12766,0.76562 1.85351,0.76562 0.72585,0 1.32606,-0.26525 1.79688,-0.79492 0.49043,-0.52967 0.73437,-1.10857 0.73437,-1.73633 0,-0.64737 -0.23426,-1.24563 -0.70508,-1.79492 -0.4512,-0.54929 -1.07077,-0.82422 -1.85547,-0.82422 z m 64.42774,0 c -0.76508,0 -1.39238,0.27493 -1.88281,0.82422 -0.47082,0.54929 -0.70704,1.14755 -0.70704,1.79492 0,0.64738 0.25557,1.23596 0.76563,1.76563 0.51005,0.51005 1.12767,0.76562 1.85351,0.76562 0.72585,0 1.32411,-0.26525 1.79493,-0.79492 0.49043,-0.52967 0.73633,-1.10857 0.73633,-1.73633 0,-0.64737 -0.23622,-1.24563 -0.70704,-1.79492 -0.4512,-0.54929 -1.06881,-0.82422 -1.85351,-0.82422 z m 17.67773,0.0293 c -0.7847,0 -1.41394,0.27493 -1.88476,0.82422 -0.47082,0.52967 -0.70508,1.11825 -0.70508,1.76562 0,0.64738 0.25362,1.23596 0.76367,1.76563 0.51006,0.52967 1.12962,0.79492 1.85547,0.79492 0.72585,0 1.3241,-0.26525 1.79492,-0.79492 0.49044,-0.52967 0.73438,-1.10857 0.73438,-1.73633 0,-0.64738 -0.23426,-1.24563 -0.70508,-1.79492 -0.4512,-0.54929 -1.06882,-0.82422 -1.85352,-0.82422 z m 34.75,0 c -0.7847,0 -1.41394,0.27493 -1.88476,0.82422 -0.45121,0.54929 -0.67578,1.14754 -0.67578,1.79492 0,0.62776 0.23425,1.20666 0.70507,1.73633 0.49044,0.52967 1.09838,0.79492 1.82422,0.79492 0.72585,0 1.34542,-0.26525 1.85547,-0.79492 0.51006,-0.52967 0.76367,-1.11825 0.76367,-1.76563 0,-0.64737 -0.23426,-1.23595 -0.70507,-1.76562 -0.47082,-0.54929 -1.09812,-0.82422 -1.88282,-0.82422 z"
       transform="scale(0.26458333)"
       id="rect892"
       inkscape:connector-curvature="0" />
  </g>
</svg>
